<?xml version='1.0' encoding='utf-8'?>
<svg xmlns="http://www.w3.org/2000/svg" width="1330.9mm" height="1322.9mm" version="1.1" viewBox="0 0 1330.9 1322.9"> <g transform="translate(735.92 497.01)"> <g transform="matrix(1.0061 0 0 1.0061 8240.1 1166.7)" stroke-width=".99397"> <g stroke-width=".99397"> <rect x="-8921.8" y="-1653.7" width="1322.9" height="1314.9" fill="#adacd5" stop-color="#000000" style="paint-order:markers stroke fill"/> <path d="m-8243.9-1410.4c-9.5079 2e-4 -18.857 0.6679-28.03 1.8962-3.7589 0.5033-7.4831 1.1109-11.176 1.8109-8.2053 1.5553-16.241 3.5858-24.078 6.0684-0.9874 0.3126-1.9865 0.5979-2.967 0.9247 0 6e-4 0 0-0.01 0-0.7525 0.2509-1.489 0.5364-2.2378 0.7954-3.9144 1.3547-7.7808 2.8133-11.586 4.3896-0.5006 0.2072-1.0124 0.3941-1.5114 0.6055 0 8e-4 0 0-0.01 0-2.5063 1.0612-4.9891 2.1698-7.4442 3.3246v0c-2.4557 1.1552-4.8842 2.3559-7.2871 3.6025-0.3835 0.2003-0.7605 0.4192-1.145 0.622-2.011 1.0592-4.0145 2.1311-5.9861 3.253v0c-2.3476 1.336-4.6674 2.7164-6.9575 4.1392v0c-2.2895 1.4228-4.5487 2.8876-6.7785 4.3951v0c-2.2298 1.5076-4.4293 3.0557-6.5969 4.6456v0c-2.1676 1.5899-4.3042 3.2203-6.4068 4.8905v0c-2.1031 1.6702-4.1727 3.3791-6.2092 5.1272-6e-4 9e-4 0 0 0 0-2.036 1.7481-4.0379 3.5347-6.0052 5.3584-5e-4 9e-4 0 0 0 0-1.9678 1.8247-3.9015 3.686-5.7985 5.5841-0.075 0.075-0.1438 0.1534-0.2184 0.2285-1.8187 1.8251-3.6081 3.6795-5.3586 5.5702v0.01c-1.8219 1.9678-3.6065 3.9711-5.3528 6.0078-0.3089 0.3579-0.596 0.7301-0.9001 1.0899-1.4299 1.6904-2.8508 3.3888-4.2269 5.1244-6e-4 5e-4 0 0 0 0-1.6691 2.1044-3.2993 4.241-4.8879 6.4097-5e-4 6e-4 5e-4 0 0 0-1.5887 2.1687-3.1395 4.3687-4.6456 6.5996-5e-4 6e-4 6e-4 0 0 0-1.5061 2.2308-2.9712 4.4904-4.3926 6.7811 0 7e-4 6e-4 0 0 0-8.5184 13.73-15.494 28.514-20.685 44.111-4.5529 2.2875-8.7458 5.3444-12.475 9.0214-0.064 0.061-0.1278 0.115-0.1917 0.1762-0.091 0.091-0.1757 0.1896-0.2663 0.2807-0.695 0.7017-1.3729 1.4243-2.0338 2.1687 0 0.021-0.053 0.037-0.053 0.058-0.1171 0.1342-0.2503 0.2551-0.3675 0.3909-5e-4 5e-4 6e-4 0 0 0-0.1544 0.1747-0.2875 0.3653-0.442 0.5421-0.5411 0.6394-1.0715 1.292-1.5876 1.9595 0 0.021-0.053 0.048-0.053 0.069-0.1438 0.1869-0.3036 0.3589-0.4474 0.5477-0.1544 0.2061-0.2929 0.4298-0.4473 0.6385v0.037c-0.4634 0.6338-0.9139 1.2783-1.3543 1.9347-0.1651 0.2418-0.3409 0.4681-0.5006 0.7128-0.1545 0.2401-0.293 0.4974-0.4474 0.7403v0.011c-0.3994 0.637-0.7898 1.2845-1.1695 1.9403v0.043c-0.2876 0.5027-0.5757 1.0085-0.8532 1.5219 0 0 0 0.01-0.01 0.011-0.3941 0.7262-0.7728 1.4634-1.1392 2.21-0.229 0.4708-0.458 0.9442-0.6774 1.4228-0.3834 0.8336-0.752 1.6785-1.1035 2.5347-0.1651 0.401-0.3248 0.8027-0.4793 1.2082-0.3834 0.9941-0.7477 2.0005-1.0869 3.0218-0.085 0.2481-0.1651 0.4963-0.245 0.7458-0.3728 1.1729-0.7216 2.3619-1.0348 3.5667v0.077c-0.053 0.1124-0.053 0.2258-0.08 0.3388-0.3302 1.2905-0.621 2.5958-0.8755 3.9189 0 0.073 0 0.147-0.053 0.22-0.2609 1.374-0.4793 2.7645-0.6577 4.1694v0.016 0.032c-0.1757 1.4128-0.3142 2.8395-0.41 4.2795v0.286c-0.085 1.3898-0.1278 2.7914-0.1332 4.2025 0 0.043-0.01 0.088-0.01 0.132 0 0.057 0.01 0.1119 0.01 0.1678 0 1.1441 0.053 2.2823 0.096 3.4126 0 0.2147 0 0.4293 0.053 0.644 0.069 1.1441 0.1598 2.2795 0.2823 3.4071 0 0.1539 0.053 0.3062 0.053 0.4596 0.1171 1.0455 0.2609 2.0834 0.426 3.1126 0.053 0.2333 0.075 0.4666 0.1119 0.6991 0.1704 1.0071 0.3621 2.0048 0.5783 2.9943 0.069 0.3302 0.1491 0.6573 0.2237 0.9852 0.1917 0.8216 0.3941 1.636 0.614 2.4439 0.1279 0.4761 0.261 0.9489 0.3995 1.4201 0.197 0.6771 0.41 1.3509 0.6273 2.0173 0.2184 0.6578 0.4474 1.3068 0.6801 1.954 0.1385 0.377 0.2769 0.7526 0.4207 1.1256 0.1492 0.3882 0.2823 0.7857 0.4367 1.1696 0.1385 0.3398 0.293 0.6655 0.4367 1.0018 1.9902 4.6875 4.4917 9.0357 7.4363 12.943 0.053 0.063 0.091 0.1273 0.1384 0.1896 0.3302 0.4319 0.646 0.8756 0.9853 1.2962 0.1864 0.2285 0.3834 0.441 0.5698 0.6661 0.3462 0.4186 0.7019 0.8291 1.0593 1.2356 0.3994 0.4506 0.8004 0.894 1.211 1.3293 0.506 0.5376 1.0178 1.0634 1.5413 1.577 0.1864 0.1811 0.3728 0.3637 0.5586 0.5421 0.7499 0.7151 1.5179 1.4052 2.3034 2.0696v0.01c0.8745 0.7396 1.7697 1.4481 2.6857 2.1218 4.0965 21.094 11.369 41.057 21.29 59.382-5.0349-2.3564-11.132-5.1261-17.76-8.0692l-0.059-0.032v0.011c-2.1957-0.9748-4.6743-2.0268-7.0122-3.0438-2.3279-1.0131-4.5508-1.9953-7.0017-3.0383-9.0839-3.8625-18.842-7.8464-29.147-11.782-0.8089-0.3089-1.6057-0.6142-2.4194-0.922-5.1371-1.9413-10.333-3.8603-15.61-5.7078-25.206-8.8253-51.42-16.233-73.825-18.464-11.202-1.1156-21.47-0.9588-30.364 1.2027-8.8949 2.1614-16.605 6.538-21.368 13.802-6.0398 9.2147-7.1885 19.072-5.0583 28.36 0.1918 0.8422 0.4101 1.6806 0.6578 2.5126 5e-4 0 0 0 0 0.01 0.064 0.2147 0.1438 0.425 0.2077 0.6385 0.4154 1.322 0.8851 2.6303 1.423 3.9191 0.053 0.1214 0.096 0.245 0.1438 0.3658 6e-4 0 0 0 0 0.01v0.043c0.6865 1.6014 1.4613 3.1757 2.3225 4.7116 0.8686 1.5475 1.8145 3.0705 2.8269 4.5713v0.01c1.0124 1.5007 2.0957 2.977 3.2364 4.4309v0.01c1.1407 1.454 2.3417 2.8836 3.5943 4.2906v0.01c1.2532 1.407 2.559 2.7876 3.908 4.1474 2.7012 2.7231 5.5776 5.3516 8.5674 7.8848v0.01c1.4933 1.2646 3.0143 2.5038 4.555 3.7208l0.01 0.01c1.5429 1.2186 3.1065 2.4151 4.6813 3.5859 6.2608 4.6537 12.718 8.9049 18.893 12.674 10.298 6.2845 19.812 11.221 26.332 14.416 0.1225 0.1667 0.2237 0.3371 0.2876 0.523 5e-4 0 0 0 0 0 0.1065-0.082 0.2023-0.1555 0.3089-0.2338 1.9875 0.9682 1.9539 0.9192 3.2885 1.5412 1.9716 0.9187 4.8602 2.2831 4.8629 2.2842l-0.069-0.027 120.88 55.194v168.52c0 18.212 7.0586 34.74 18.4 46.156 1.2579 1.2658 2.5654 2.4699 3.925 3.6053 0 2e-3 0.01 3e-3 0 5e-3 2.5142 2.0992 5.2117 3.9409 8.0364 5.5483 0.2343 0.13261 0.4527 0.29184 0.6849 0.42126 0.8414 0.46226 1.7244 0.84209 2.5898 1.2577 0.7217 0.34617 1.4225 0.73558 2.1607 1.0485 0 1e-3 0.01 2e-3 0 3e-3 0.1491 0.0644 0.3142 0.10758 0.4633 0.17042 4.7318 1.9542 9.7688 3.2361 15.038 3.6851-11.002 31.573-29.095 75.716-45.06 115.44-9.0041 22.4-17.323 43.4-23.324 60.068-3 8.3341-5.4162 15.572-7.0704 21.461-1.6531 5.8892-2.7294 10.021-2.372 14.143 0.3302 3.7713 1.9012 7.0358 4.2791 9.9626v0.0106c0.5944 0.731 1.2415 1.4418 1.929 2.1329 0.2769 0.27693 0.5863 0.53805 0.8755 0.80907 1.1514 1.081 2.379 2.1304 3.7099 3.1319 0.8366 0.62992 1.7026 1.2469 2.5925 1.8522 0.8835 0.60116 1.8006 1.1903 2.7464 1.7696 0 2e-3 0.01 4e-3 0 5e-3 2.845 1.7414 5.9589 3.3809 9.2805 4.907 4.4352 2.038 9.2379 3.8731 14.256 5.4712 20.059 6.3879 43.339 9.3027 60.183 2.8374 16.426-6.3051 25.52-19.601 27.587-33.339 1.5567-10.345-1.186-20.624-6.7566-29.192-0.7941-1.2216-1.6435-2.4085-2.5484-3.5557 0-0.36214-0.08-0.72226-0.1704-1.0733 1.7841-3.0892 15.95-27.592 37.418-57.926 22.859-32.299 52.54-68.237 76.643-82.145 18.862-10.883 47.59-9.4491 74.15 0.6027v5e-3c2.0435 0.7735 4.0726 1.5975 6.0851 2.4714 2.0089 0.87266 3.9991 1.7938 5.9664 2.7631v5e-3c1.9662 0.96911 3.9095 1.9842 5.823 3.0466 0 2e-3 0.01 4e-3 0 5e-3 0.7733 0.42925 1.5184 0.8969 2.2815 1.3403 1.1253 0.65399 2.2624 1.2926 3.3632 1.976v5e-3c1.8469 1.1468 3.6571 2.3361 5.4274 3.5613 3.0052 2.0798 5.8619 4.2886 8.6057 6.572 0.4953 0.41168 1.0172 0.80407 1.5029 1.2219 0.426 0.36747 0.8185 0.75614 1.2382 1.1284 1.1413 1.0123 2.2863 2.0239 3.3685 3.0686 4.441 4.2864 8.3719 8.8365 11.652 13.571 8.7474 12.625 12.899 26.331 10.53 40.539-10.49 62.907-21.687 96.437-21.687 96.437-0.7872 2.3649 0.1331 4.9105 2.1356 6.2473v3e-3c0.2876 0.19332 0.5997 0.36214 0.9299 0.50061 0 0 20.492 8.5727 44.893 14.974 12.2 3.2006 25.403 5.8787 37.764 6.6573 12.36 0.77829 23.977-0.18054 33.084-5.3859 12.578-7.1895 15.462-22.258 11.925-35.007-1.8522-6.6736-5.5067-12.986-10.606-17.869v-0.0106c-1.0172-0.97443-2.0925-1.8918-3.2226-2.7438 0-2e-3 -0.01-4e-3 0-5e-3 -1.1296-0.85099-2.3145-1.6357-3.5506-2.3476-1.2398-0.71433-2.5302-1.3556-3.8718-1.9127 6.2939-13.395 28.954-68.044 13.771-143.19-7.6918-38.069-25.856-61.022-43.626-75.925v-5e-3c-2.5356-2.1266-5.0631-4.0894-7.5518-5.9088 0-2e-3 -0.01-4e-3 0-5e-3 -2.4881-1.8192-4.9374-3.5023-7.3121-5.0694v-5e-3c-2.3747-1.5666-4.6749-3.0159-6.8664-4.3703 0-2e-3 -0.01-4e-3 0-5e-3 -4.3846-2.7097-8.3336-5.0335-11.567-7.1334v-3e-3c-5e-4 -5.8e-4 0-2e-3 0-3e-3 -0.2184-0.14273-0.3622-0.26362-0.5779-0.40475-1.3537-0.8954-2.6356-1.7707-3.6795-2.5705-1.2057-0.9231-2.1861-1.7737-2.9035-2.5292-1.4347-1.5138-1.7127-2.34-1.742-3.0218-0.2077-4.74-0.4793-19.585-0.768-38.053 5.1185-4.0576 8.4161-10.325 8.4161-17.322v-4.508c0-7.2448-3.5367-13.706-8.9694-17.743-0.064-4.7122-0.1278-8.7957-0.1917-13.494-0.49-38.084-0.8388-70.887-0.8724-73.933 4.6823-1.9738 22.292-9.8193 42.179-29.97 22.694-22.996 45.369-60.649 45.369-117.6 0-25.697-10.138-46.664-25.724-62.756-1.1109-1.147-2.2485-2.2711-3.4127-3.3685v-0.01c-1.1637-1.0964-2.3529-2.1704-3.5666-3.2171v-0.011c-1.6371-1.4117-3.3179-2.7778-5.0391-4.1034 0 0-0.01 0 0-0.01-1.7213-1.3254-3.4814-2.6085-5.2788-3.8503 0 0-0.01 0 0-0.01-0.059-0.043-0.1225-0.077-0.1811-0.1182-1.7436-1.1999-3.5181-2.366-5.3256-3.4897-0.9059-0.5632-1.8422-1.0875-2.763-1.632-0.9772-0.5778-1.9385-1.1768-2.9312-1.7338-3.2172-44.046-20.082-84.326-46.384-116.63v-0.011c-4.0459-4.9695-8.3165-9.7508-12.794-14.328-2.0829-2.1291-4.219-4.2052-6.3903-6.2445-0.1651-0.1528-0.3142-0.3158-0.4793-0.4681-2.339-2.1825-4.727-4.3127-7.1641-6.3877v-0.01c-2.437-2.0748-4.9219-4.094-7.4527-6.0574v-0.01c-2.5339-1.9657-5.1137-3.8743-7.7387-5.7244-2.6218-1.848-5.2868-3.6377-7.9949-5.3666 0 0-0.01 0 0-0.01-2.707-1.7281-5.4577-3.3953-8.2478-5.0006-2.2932-1.3195-4.6301-2.5693-6.9766-3.8034-0.5113-0.2695-1.0092-0.5656-1.5247-0.8312v-0.01c-5.7432-2.9594-11.64-5.6593-17.676-8.0884-3.0191-1.2149-6.0728-2.3609-9.1591-3.4374-21.614-7.5385-44.837-11.639-69.012-11.639v0z" color="#000000" fill="#8a89aa" stroke-linecap="round" stroke-linejoin="round" stroke-width=".99396"/> <path d="m-8277.5-1434.3c-92.612 0-171.24 60.15-198.93 143.46-18.594 9.2849-30.714 30.974-30.727 55.126 0 21.061 9.2224 40.249 23.918 50.972 4.0965 21.102 11.368 41.074 21.295 59.405-18.047-8.4463-47.724-21.638-79.012-32.593-25.206-8.8252-51.421-16.23-73.826-18.461-11.202-1.1156-21.47-0.96-30.364 1.2015-8.8949 2.1615-16.603 6.538-21.366 13.802-8.7836 13.4-7.2285 28.159-0.2769 40.553 6.9542 12.394 18.782 23.293 31.382 32.66 16.7 12.414 34.796 21.979 45.227 27.089 0.1225 0.1677 0.229 0.3424 0.2929 0.5299 0.1065-0.082 0.2024-0.1577 0.3036-0.2365 4.9374 2.405 8.1658 3.8325 8.1658 3.8325l-0.091-0.032 120.9 55.199v168.52c0 32.371 22.292 59.429 51.319 61.896-11.002 31.574-29.097 75.719-45.064 115.44-9.004 22.4-17.323 43.399-23.325 60.067-3 8.3341-5.4167 15.572-7.0709 21.461-1.6531 5.8892-2.7294 10.02-2.372 14.142 0.6587 7.5425 6.2959 13.066 13.388 17.89 7.0917 4.8238 16.26 8.9617 26.29 12.156 20.061 6.3879 43.34 9.3045 60.185 2.8393 16.427-6.3052 25.519-19.603 27.587-33.341 1.7788-11.82-2.0514-23.554-9.305-32.747 0-0.36268-0.08-0.72056-0.1704-1.072 1.7846-3.0892 15.948-27.594 37.415-57.928 22.86-32.3 52.543-68.236 76.646-82.144 23.218-13.397 61.382-8.129 92.054 8.9001 15.336 8.5146 28.71 19.825 37.458 32.449 8.7474 12.625 12.898 26.332 10.529 40.539-10.49 62.907-21.686 96.438-21.686 96.438-0.8995 2.7027 0.4314 5.6414 3.0606 6.742 0 0 20.491 8.5736 44.892 14.975 12.2 3.2008 25.404 5.8789 37.764 6.6575 12.36 0.77834 23.978-0.17735 33.085-5.3828 12.578-7.1896 15.46-22.261 11.922-35.01-2.9637-10.678-10.538-20.435-21.27-24.886 6.2922-13.39 28.956-68.043 13.771-143.2-8.79-43.508-31.256-67.267-51.183-81.837-9.9643-7.2851-19.3-12.388-25.769-16.59-3.2354-2.101-5.7336-3.9956-7.1694-5.5094-1.4353-1.5139-1.7128-2.3374-1.742-3.0193-0.3835-8.8447-1.0045-51.31-1.5109-91.12-0.49-38.084-0.8394-70.888-0.8729-73.933 4.6834-1.9738 22.293-9.819 42.18-29.97 22.694-22.996 45.368-60.65 45.368-117.6 0-29.364-13.236-52.556-32.714-69.349-6.559-5.6552-13.822-10.61-21.542-14.941-7.9198-108.43-98.54-194.04-209.03-194.04z" color="#000000" fill="#808080" stroke-linecap="round" stroke-linejoin="round" stroke-width=".99396"/> <path d="m-8168.3-1253.7c-7.2802 0.032-14.144 0.498-20.357 1.3617-33.476 4.8104-41.795 36.925-24.468 60.141 12.289 15.496 32.524 25.635 54.013 34.403 47.543-36.986 43.409-87.647 43.409-87.647 0-0.54 0-1.0667 0.1065-1.5718-1.5589-0.3994-3.1113-0.8358-4.6744-1.1978-12.253-2.8392-24.609-4.5305-36.274-5.1819-2.9158-0.1635-5.7895-0.2621-8.6068-0.294v0c-1.056-0.016-2.1036-0.016-3.1442-0.016zm63.877 9.889c0.08 10.928-2.2516 55.916-42.662 90.749 16.656 6.4342 33.267 12.549 46.953 20.013 0.4473 0.1049 0.8792 0.2615 1.2936 0.4793 8.112 4.3996 20.327 13.565 25.725 22.913-10.682-4.3805-16.979-7.1513-22.384-9.5527-2.6367 4.3262-7.7605 12.008-15.305 21.245-29.57 38.756-72.337 66.904-121.59 77.729-5.3896 1.3774-10.907 2.6362-16.643 3.6732-22.187 4.0107-21.609-65.45-41.502-69.899-57.927-9.7057-111.78-18.122-161.15-21.808-5.2319-2.6218-45.924-22.805-91.871-38.984-0.6502 14.311-5.5887 49.675-36.921 78.78 1.5817 0.7327 3.3621 1.555 3.3621 1.555 0 0.011 0 0.027 0.096 0.032l188.14 85.92c1.7825 0.81088 2.9978 2.5127 3.1682 4.4632 0 0 2.902 32.866 3.2028 73.778 0.3036 40.913-1.8336 89.781-12.575 123.18-7.784 24.201-21.273 58.299-35.072 92.586 0.5938-0.0735 1.1982-0.1454 1.8496-0.21889 17.665-1.917 56.243-1.2518 83.482 34.403 1.3842-1.9947 2.7113-3.9465 4.1476-5.9762 23.188-32.763 52.481-69.347 80.095-85.281 28.501-16.445 69.687-9.5721 102.79 8.8046 16.55 9.1885 31.17 21.402 41.128 35.773 6.1879 8.9303 10.556 18.784 12.285 29.137 8.5583-3.7818 23.825-9.2392 41.376-9.641 13.628-0.31156 28.628 2.4276 42.917 11.373 1.4406-19.272 0.7483-41.435-4.1439-65.634-8.2398-40.785-28.345-61.604-46.94-75.199-9.2965-6.7976-18.208-11.673-25.27-16.26-3.5319-2.2934-6.6213-4.4993-9.1335-7.1488-2.511-2.6495-4.5523-6.0575-4.7227-10.036-0.4261-9.797-1.0183-51.628-1.5221-91.451-0.506-39.823-0.9118-77.304-0.9118-77.304 0-2.2854 1.3741-4.3443 3.5091-5.1567 0 0 20.751-7.846 41.851-29.226 21.099-21.38 42.229-55.867 42.229-109.96 0-26.156-11.302-45.912-28.927-61.107-13.791-11.891-31.546-20.73-50.353-26.75zm-311.85 566.66c-11.008-0.0266-18.477 2.0063-18.656 2.0551-3.1474 7.8008-6.3135 15.652-9.3646 23.241-8.9897 22.368-17.286 43.299-23.186 59.691-2.9515 8.1958-5.3038 15.262-6.8371 20.719-1.5284 5.4577-2.0818 9.712-2.0008 10.25 0.1544 1.7784 2.822 5.8512 8.6653 9.8259 5.8434 3.9746 14.23 7.8408 23.473 10.784 18.486 5.8869 40.635 7.7874 52.975 3.0512 13.026-4.9999 19.175-14.511 20.723-24.8 1.5082-10.018-1.8384-20.638-8.5568-27.418-22.475-16.383-38.08-15.542-49.028-11.293-7.9874 3.1815-10.543 4.3975-24.352 10.654 5.4865-11.273 11.476-16.571 20.404-20.808 3.59-1.3931 7.6003-2.4211 11.995-2.883 11.68-1.2288 26.065 1.5517 42.418 12.121 4.5492-7.6368 14.193-23.42 26.691-41.935-0.8254-0.36907-1.546-0.93838-2.0967-1.6559-19.779-26.357-45.887-31.56-63.267-31.6zm354.69 8.044c-19.31 0.10864-35.849 7.3608-42.014 10.439-0.08 2.5649-0.3089 5.1459-0.7488 7.7456-9.494 56.931-18.608 86.473-20.631 92.854 3.5623 1.4507 17.835 7.4419 38.922 12.974 11.77 3.0878 24.415 5.6193 35.681 6.3292 11.266 0.71002 21.048-0.56435 27.002-3.9673 7.5539-4.319 9.4456-13.248 6.8381-22.644-2.6069-9.3957-9.8487-17.748-19.047-19.332-0.4314-0.0735-0.8404-0.20344-1.2223-0.36587-20.65-4.9782-38.844 2.4083-60.969 10.986 4.2552-10.249 10.721-15.243 15.928-18.034 5.749-2.8164 12.875-5.1209 21.279-5.9301v-4e-3c6.8344-0.65793 14.512-0.32114 22.976 1.5424 3.778-8.212 12.399-29.486 16.26-59.729-13.109-9.7885-27.295-12.937-40.25-12.864z" color="#000000" fill="#ddddfe" stroke-linecap="round" stroke-linejoin="round" stroke-width=".99396"/> <path d="m-8246.1-976.61c-32.573 0-58.97 26.379-58.97 58.938v26.748c0 32.56 26.397 58.938 58.97 58.938h32.438c32.574 0 58.97-26.379 58.97-58.938v-26.748c0-32.56-26.396-58.938-58.97-58.938z" color="#000000" fill="#f2f2f2" stroke-linecap="round" stroke-linejoin="round" stroke-width=".99396"/> <path d="m-8449.7-996.82 53.344 24.356c0.2183 2.5962 2.7347 31.083 3.0196 69.808 0.3036 40.442-2.1473 88.97-12.049 119.76-0.08 0.24765-0.1864 0.54572-0.2716 0.79619-24.193-0.43244-44.045-22.675-44.045-51.175z" color="#000000" fill="#fff" stroke-linecap="round" stroke-linejoin="round" stroke-width=".99396"/> <path d="m-8630.5-1166.1c4.4895-0.1502 9.3939 0.043 14.608 0.5628 18.202 1.8127 40.084 7.5013 61.824 14.685 0.1384 9.2058-1.586 47.09-36.729 77.282-10.305-5.3014-24.788-13.399-38.147-23.33-11.932-8.8696-22.719-19.149-28.386-29.247-5.666-10.098-6.7386-19.151-0.1119-29.255 2.9425-4.4887 7.7414-7.4663 14.834-9.19 3.5474-0.8619 7.6194-1.3573 12.108-1.5082z" color="#000000" fill="#ddddfe" stroke-linecap="round" stroke-linejoin="round" stroke-width=".99396"/> <path d="m-8463.1-1279.9c16.915 0.2205 33.937 16.18 33.937 44.143-3.4857 72.139-66.088 45.849-67.112 0 1.4923-30.668 17.285-44.35 33.175-44.143z" color="#000000" fill="#ddddfe" stroke-linecap="round" stroke-linejoin="round" stroke-width=".99396"/> <path d="m-8441.7-1187.5c-6.508 5.1897-13.934 8.9098-21.73 10.619-0.7637 0.1677-1.562 0.1677-2.3289 0-1.6312-0.3579-3.2257-0.8028-4.7872-1.3311 5.3241 22.139 14.355 42.827 26.4 61.378l0.08 0.043c0.6753 0.3435 1.2739 0.8238 1.7527 1.4125 0 0 15.056 18.27 40.01 38.367-25.591-30.388-39.52-67.595-37.655-106.03z" color="#000000" fill="#ddddfe" stroke-linecap="round" stroke-linejoin="round" stroke-width=".99396"/> <path d="m-8423.9-1191-1.424 0.8216c0.2023-0.065 0.3834-0.1155 0.4952-0.1267 0.1864-0.016 0.5273-0.3009 0.9283-0.6954z" color="#000000" fill="#ddddfe" stroke-linecap="round" stroke-linejoin="round" stroke-width=".99396"/> <path d="m-8127.5-1080.3s33.49-34.21 54.364-29.356c0 0-73.048-43.016-92.428-28.316-19.38 14.7-12.972 31.286-9.2027 32.04 3.7689 0.7539 47.267 25.632 47.267 25.632z" fill="#adacd5" stop-color="#000000" style="paint-order:normal"/> <path d="m-8463.4-1176.9s12.244 53.118 31.935 70.314c19.692 17.196 46.266 3.8184 46.533-1.2459 0.2716-5.064 1.865-56.718-0.2716-62.369-2.1324-5.6512-9.5803-17.327-13.328-20.791-3.746-3.4641-28.241-7.4622-28.241-7.4622z" fill="#adacd5" stop-color="#000000" style="paint-order:normal"/> <path d="m-8255.3-1308h0.08c-68.704 0.5978-127.35 34.045-154.9 83.497v-0.2242l-13.114 33.034c0.08-0.082 0.1225-0.123 0.1917-0.2114-1.3628 5.4788-2.3848 11.079-3.033 16.787-1.0007 9.0141-1.0315 18.102-0.1278 27.156 10.678 48.876 48.576 92.437 103.66 115.35 4.6429 1.4448 9.3636 2.7184 14.168 3.779 10.243 1.6568 20.602 2.5333 30.989 2.5605 2.6735 0 5.3294-0.065 7.9773-0.1715 12.513-0.4984 24.723-2.1648 36.535-4.8707 49.312-12.911 82.48-38.884 102.71-60.3 8.9189-9.856 16.85-20.618 23.664-32.126-61.844-23.913-95.972-39.905-114.81-61.46-21.622-28.656-11.201-75.126 31.279-77.974 10.301-1.4321 21.946-1.8472 34.233-1.1593v0c11.609 0.6498 23.797 2.3219 35.978 5.0198-28.952-25.395-67.426-42.558-109.72-47.348-8.5604-0.9692-17.169-1.414-25.758-1.3394z" color="#000000" fill="#403c53" stroke-linecap="round" stroke-linejoin="round" stroke-width=".99396"/> <path d="m-8402-1237.2c-2.9206 4.1254-5.6244 8.3786-8.0694 12.768v-0.2231l-13.112 33.033c0.08-0.082 0.1225-0.1215 0.1917-0.2099-1.3559 5.4478-2.3731 11.015-3.0223 16.689 0.9874-1.0117 29.526-30.587 24.01-62.057z" fill="#2e2b3b" stop-color="#000000" style="paint-order:normal"/> <path d="m-8256.2-1324.5c-68.04 0.5929-126.05 33.008-154.42 81.058 0.6513 3.6099 0.9229 6.5253 0.9229 6.5253v1.2746c30.308-46.52 88.008-77.188 154.43-77.766h-0.08c8.8092-0.073 17.639 0.3904 26.416 1.3844 47.035 5.327 89.604 25.528 120.14 55.455 3.4734 0.9588 6.933 1.9895 10.36 3.1318-29.988-37.537-77.81-63.588-131.75-69.698-8.652-0.9801-17.355-1.4369-26.036-1.3618z" color="#000000" fill="#adacd5" stroke-linecap="round" stroke-linejoin="round" stroke-width=".99396"/> <path d="m-8277.4-1423.4c-85.228 0-157.81 53.547-186.06 128.82 0 0.01 0.08 0.011 0.08 0.016 19.622 4.3442 36.918 21.39 42.941 42.686l4.6099-4.7103c0.1225 0.088 0.2397 0.1885 0.3568 0.2955 31.819-47.433 91.157-78.486 159.09-79.082v0c9.1191-0.082 18.254 0.3946 27.339 1.4238 63.027 7.14 118.51 40.095 149.18 87.701-10.691-99.636-95.001-177.14-197.56-177.14z" color="#000000" fill="#ddddfe" stroke-linecap="round" stroke-linejoin="round" stroke-width=".99396"/> <path d="m-8434.6-1276.2 10.095-0.1263 11.735 28.266 3.5336 20.568s0.3834 13.123-1.2622 14.638c-1.6403 1.5142-9.4642 9.4638-10.599 10.726-1.1354 1.2618-18.549 12.618-18.549 12.618s1.8933-3.5332 2.7763-5.6783c0.8835-2.1452 11.356-20.694 11.735-22.966 0.3728-2.2713-1.2622-21.956-1.0098-24.48 0.2557-2.5238-8.4544-33.565-8.4544-33.565z" fill="#adacd5" stop-color="#000000" style="paint-order:normal"/> <path d="m-8309.3-906.82-69.303 15.458s65.037-6.3985 71.967 28.784c17.78 55.777 80.104 48.073 119.41 41.474 30.385-5.3308 34.117-44.138 34.117-44.138s22.92-10.663 27.717 25.586c4.7984 36.249 42.115 23.99 75.699 94.355 10.646 22.307 12.195 46.002 9.3678 67.97 6.7556 1.7924 13.565 4.5697 20.223 8.7374 1.4406-19.272 0.7488-41.435-4.1438-65.634-8.2404-40.785-28.345-61.604-46.94-75.199-9.297-6.7976-18.208-11.673-25.271-16.26-3.5319-2.2933-6.6198-4.4993-9.1324-7.1488-2.5116-2.6494-4.5529-6.0575-4.7239-10.036-0.3088-7.0878-0.6992-32.204-1.0843-59.935zm72.883 149.35c-54.338 1.0722-101.97 46.35-122.44 92.723 9.8999 5.3032 5.3683 0.64818 14.015 11.966 1.3842-1.9947 2.7118-3.9466 4.1487-5.9762 23.188-32.763 52.48-69.347 80.095-85.281 20.622-11.899 47.88-11.547 73.916-3.505-3.8297-1.7932-7.8751-3.4285-12.209-4.8289-11.591-3.7458-24.336-5.3582-37.529-5.0979zm-140.62 90.404c-9.0866 25.319-23.316 41.997-36.673 52.769 10.415 0.22367 22.566 3.585 36.092 12.327 4.5492-7.6368 14.193-23.42 26.691-41.935-0.8254-0.36907-1.546-0.93838-2.0967-1.6559-7.384-9.8398-15.65-16.73-24.014-21.505zm334.96 0.54651c-6.2332 31.918-20.466 58.589-27.154 69.887 2.7118-0.64168 5.5914-1.1348 8.6456-1.4289v-4e-3c6.8344-0.65793 14.512-0.32113 22.976 1.5424 3.778-8.212 12.399-29.486 16.26-59.729-6.7311-5.0255-13.742-8.2795-20.728-10.267zm-371.61 62.851c-5.5323-0.0937-10.293 1.0207-14.398 2.6141-4.2073 1.6755-7.1295 2.9094-10.76 4.5178 5.3262 1.1314 10.316 5.7998 6.6326 20.946-6.1676 25.352-36.849 12.44-43.536 10.154-0.4421 2.2933-0.6349 3.9221-0.5859 4.2321 0.1545 1.7784 2.8221 5.8512 8.6654 9.8259 5.8433 3.9746 14.23 7.8408 23.473 10.784 18.486 5.8869 40.635 7.7874 52.975 3.0512 13.026-4.9999 19.175-14.511 20.724-24.8 1.5077-10.018-1.8384-20.638-8.5567-27.418-14.047-10.239-25.41-13.751-34.63-13.907zm361.73 16.996c-7.383 0.18853-14.648 1.7089-22.122 3.9757 20.543 0.80353 25.782 19.146 12.918 29.57-11.23 9.0999-43.62-6.8012-60.544-16.201-1.5492 5.5848-2.7272 9.4498-3.2992 11.251 3.5623 1.4507 17.835 7.4419 38.922 12.974 11.77 3.0878 24.415 5.6193 35.681 6.3292 11.266 0.71002 21.048-0.56436 27.002-3.9673 7.5539-4.319 9.4456-13.248 6.8381-22.644-2.6069-9.3957-9.8487-17.748-19.047-19.332-0.4314-0.0735-0.8404-0.20291-1.2223-0.36587-5.1627-1.2445-10.171-1.715-15.126-1.5886z" fill="#adacd5" stop-color="#000000" style="paint-order:normal"/> <path d="m-8404.2-976.03c0.6257 39.559 1.7223 166.01-9.5026 175.77-6.3982 5.5653-15.781 7.1559-24.624 1.2229 8.0801 10.269 19.742 16.698 32.638 16.928 0.08-0.25084 0.1864-0.54652 0.2717-0.79453 9.9025-30.789 12.351-79.318 12.049-119.76-0.2875-38.725-2.8023-67.211-3.0217-69.807z" fill="#c1c1c1" stop-color="#000000" style="paint-order:normal"/> <path d="m-8246.1-965.72h32.438c26.733 0 48.08 21.338 48.08 48.049v26.748c0 26.711-21.347 48.049-48.08 48.049h-32.438c-26.732 0-48.08-21.338-48.08-48.049v-26.748c0-26.711 21.348-48.049 48.08-48.049z" color="#000000" fill="#fff" stroke-linecap="round" stroke-linejoin="round" stroke-width=".99396"/> <path d="m-8476.6-1197.3s26.55 13.765 38.564-9.6997c12.013-23.464 7.6077-41.198 7.6077-41.198l8.0348 6.049-0.4687 13.664s-8.9998 25.25-10.012 25.656c-1.0135 0.4058-0.7973 3.7633-4.023 7.6485-3.2258 3.8852-9.0888 6.6747-10.908 7.1714-1.8193 0.4969-8.1775 1.6178-12.632 1.0573-4.4539-0.5604-9.3433-3.7103-10.621-3.1304-1.2765 0.5799-5.5402-7.2171-5.5402-7.2171z" fill="#adacd5" stop-color="#000000" style="paint-order:normal"/> <path d="m-8456.7-1295.6c-28.421 0-50.462 27.393-50.462 59.896s22.04 59.896 50.462 59.896c28.422 0 50.452-27.393 50.452-59.896s-22.03-59.896-50.452-59.896zm0 10.89c21.303 0 39.563 21.369 39.563 49.006 0 27.637-18.26 49.006-39.563 49.006-21.302 0-39.572-21.369-39.572-49.006 0-27.637 18.27-49.006 39.572-49.006z" color="#000000" stroke-linecap="round" stroke-linejoin="round" stroke-width=".99396"/> <path d="m-8580.5-1068.5c1.5817 0.7329 3.3621 1.5551 3.3621 1.5551 0 0.011 0 0.027 0.096 0.032l188.14 85.92c1.7825 0.81083 2.9978 2.5127 3.1682 4.4632 0 0 2.902 32.866 3.2028 73.778 0.08 11.353-0.08 23.326-0.4793 35.404v0.0107c48.93-170.46-10.417-129.49-197.53-201.16z" fill="#adacd5" stop-color="#000000" style="paint-order:normal"/> <path d="m-8389.2-906.24s-1.5658-11.243 12.711-11.956c14.277-0.71401 77.654-0.71401 77.654-0.71401l0.1704 37.118-81.137-1.4276s-12.884-2.6768-9.4025-23.02z" fill="#fff" stop-color="#000000" style="paint-order:normal"/> <path d="m-8303.4-918.91c-0.3355 2.6e-4 -0.6588 4e-3 -1.0587 4e-3 -0.3515 1.0201-0.5699 3.4686-0.5699 7.9473 0 24.121-26.775 19.278-55.315 19.278-28.541 0-26.204-11.545-26.204-11.545l-2.2911 10.641c2.5329 8.0164 8.9977 9.3636 8.9977 9.3636l78.314 1.3742c1.1418-8.5224 2.7363-18.474 2.74-18.496v-0.016-0.016c0-0.0479-2.7634-15.367-4.6104-18.542z" fill="#c1c1c1" stop-color="#000000" style="paint-order:normal"/> <path d="m-8375.3-925.32c-12.15 0-22.1 9.9498-22.1 22.1v4.5077c0 12.15 9.95 22.1 22.1 22.1h72.87c-0.8771-3.516-1.4374-7.1551-1.6525-10.889h-71.217c-6.305 0-11.21-4.9051-11.21-11.21v-4.5077c0-6.3053 4.905-11.21 11.21-11.21h71.117v-3.2415c0-2.5924 0.1705-5.1441 0.49-7.648z" color="#000000" stroke-linecap="round" stroke-linejoin="round" stroke-width=".99396"/> <path d="m-8155.1-925.32c0.3249 2.5039 0.49 5.0555 0.49 7.648v3.2415h40.798c6.3056 0 11.208 4.9051 11.208 11.21v4.5077c0 6.3052-4.9022 11.21-11.208 11.21h-40.899c-0.2077 3.7344-0.7802 7.3734-1.6547 10.889h42.554c12.15 0 22.1-9.9498 22.1-22.1v-4.5077c0-12.15-9.9493-22.1-22.1-22.1z" color="#000000" stroke-linecap="round" stroke-linejoin="round" stroke-width=".99396"/> <path d="m-8205.4-1302.5c17.165 8.6054 48.757 24.983 52.362 30.776 1.4087 2.2637-4.5656 4.4079-13.398 7.1068 3.5155 0.011 7.0954 0.1065 10.742 0.3105 11.609 0.6498 23.798 2.3201 35.978 5.018-23.36-20.49-52.923-35.615-85.689-43.212zm-26.725 83.512v0.2652 0.1763-0.442zm0 0.442c-1.2819 39.379 33.462 62.458 66.65 80.545 33.24 18.114-79.328 163.21-193.24 76.426-16.316-12.43-27.194-18.902-33.894-20.904 17.897 20.726 41.74 38.066 70.181 49.894 4.6429 1.4448 9.363 2.7175 14.167 3.7781 10.243 1.6568 20.6 2.5323 30.986 2.5595 2.6734 0 5.3283-0.065 7.9767-0.1726 12.513-0.4984 24.726-2.165 36.538-4.8709 49.312-12.911 82.479-38.88 102.71-60.296 8.9183-9.856 16.846-20.618 23.66-32.126-61.843-23.913-95.97-39.906-114.8-61.46-7.4325-9.8506-11.076-21.809-10.935-33.374z" fill="#2e2b3b" stop-color="#000000" style="paint-order:normal"/> <path d="m-8277.5-1434.3c-92.609 0-171.23 60.156-198.93 143.46-18.593 9.2851-30.716 30.971-30.731 55.123 0 21.061 9.2224 40.251 23.918 50.974 4.096 21.102 11.369 41.074 21.294 59.405-5.0295-2.3543-11.118-5.1206-17.739-8.0609l-0.08-0.048v0.016c-17.119-7.6014-38.655-16.604-61.187-24.493-25.206-8.8253-51.419-16.231-73.825-18.462-11.202-1.1156-21.471-0.9594-30.365 1.202-8.8944 2.1614-16.605 6.5378-21.367 13.802-8.7846 13.4-7.2279 28.158-0.2769 40.552 6.9553 12.394 18.786 23.293 31.386 32.659 16.7 12.414 34.794 21.981 45.225 27.091 0.1225 0.1677 0.229 0.3382 0.2929 0.5251 0.1065-0.082 0.2024-0.1566 0.3089-0.2349 4.9369 2.4049 8.1658 3.8328 8.1658 3.8328l-0.091-0.032 120.9 55.198v168.52c0 32.371 22.293 59.43 51.319 61.897-11.001 31.574-29.1 75.72-45.066 115.44-9.0031 22.4-17.32 43.397-23.32 60.065-3 8.3341-5.4194 15.574-7.073 21.463-1.6542 5.8892-2.7284 10.02-2.3705 14.142 0.6583 7.5425 6.2949 13.067 13.386 17.891 7.0916 4.8238 16.263 8.9602 26.292 12.154 20.059 6.3879 43.339 9.3021 60.183 2.8368 16.426-6.3051 25.518-19.602 27.586-33.34 1.7788-11.82-2.0509-23.554-9.3044-32.748 0-0.36214-0.08-0.72056-0.1705-1.0716 1.7841-3.0892 15.949-27.592 37.417-57.926 22.859-32.299 52.541-68.238 76.644-82.146 23.218-13.397 61.384-8.1278 92.056 8.9014 15.336 8.5146 28.711 19.825 37.458 32.449 8.7474 12.624 12.897 26.332 10.528 40.539-10.49 62.907-21.686 96.435-21.686 96.435-0.899 2.7027 0.442 5.6448 3.0601 6.7454 0 0 20.493 8.5727 44.893 14.974 12.2 3.2006 25.404 5.8784 37.765 6.657 12.36 0.77829 23.977-0.17841 33.084-5.3836 12.578-7.1895 15.461-22.26 11.923-35.008-2.9638-10.678-10.54-20.433-21.27-24.884 6.2923-13.39 28.956-68.044 13.773-143.2-8.7911-43.508-31.257-67.27-51.185-81.839-9.9649-7.2851-19.301-12.386-25.771-16.588-3.2348-2.1011-5.7341-3.9958-7.1694-5.5098-1.4347-1.5138-1.7117-2.3399-1.741-3.0217-0.3834-8.8448-1.006-51.309-1.5124-91.119-0.49-38.084-0.8367-70.888-0.8703-73.934 4.6824-1.9738 22.292-9.8184 42.179-29.97 22.694-22.996 45.368-60.649 45.368-117.6 0-29.364-13.236-52.555-32.713-69.349-6.5596-5.6551-13.824-10.613-21.544-14.945-7.9187-108.42-98.538-194.03-209.03-194.03zm0.08 10.881v0.01c102.56 0 186.87 77.508 197.56 177.14-30.675-47.607-86.155-80.562-149.18-87.702-9.0845-1.029-18.22-1.5033-27.339-1.4248v0c-68.138 0.5978-127.64 31.835-159.38 79.511 0.7078 1.2949 1.2808 2.3369 1.4758 2.6308 0.5932 0.8869 1.889 5.8574 2.9333 10.91 28.125-48.66 86.526-81.566 155.09-82.163 8.6808-0.073 17.384 0.3814 26.036 1.3618 53.942 6.1107 101.76 32.165 131.75 69.702-3.427-1.1422-6.885-2.1763-10.359-3.1352-30.536-29.926-73.104-50.128-120.14-55.455-8.7783-0.9941-17.608-1.459-26.418-1.3826h0.08c-66.661 0.5799-124.54 31.457-154.76 78.254 0.1704 1.2607 0.2769 2.3553 0.2769 3.1394 0 1.4604-0.1278 4.3423-0.3036 7.5481 27.544-49.452 86.195-82.897 154.9-83.495h-0.08c8.5892-0.073 17.199 0.3707 25.759 1.3406 42.298 4.7905 80.773 21.952 109.72 47.348-12.181-2.698-24.366-4.3722-35.975-5.0222v0c-12.286-0.688-23.93-0.2716-34.232 1.1599-42.48 2.8473-52.902 49.321-31.28 77.977 18.834 21.554 52.966 37.543 114.81 61.456-6.8142 11.507-14.747 22.27-23.666 32.126-20.236 21.416-53.405 47.389-102.72 60.3-11.811 2.7059-24.021 4.3725-36.534 4.871-2.6474 0.1038-5.3033 0.1725-7.9768 0.1725-16.707-2.7498-87.992-30.787-124.2-67.537-11.986-16.615-20.423-34.958-24.615-54.148-0.9011-9.0543-0.8708-18.144 0.1278-27.158 0.6502-5.7079 1.6674-11.307 3.0297-16.786-0.8238 0.9603-1.4629 1.5741-1.7777 1.6054-0.4899 0.048-2.0226 0.684-3.8536 1.4962v-0.016c-0.1438 0.065-0.3408 0.155-0.49 0.2231-0.1118 0.048-0.1864 0.083-0.3035 0.1342 0 0 5e-4 0 0 0.011-3.4606 1.5587-7.7307 3.6213-10.516 4.9719-1.3943 27.08 7.6636 58.11 20.515 82.039-8.3144-4.6512-18.208-11.172-24.642-15.372l-0.08-0.043c-12.047-18.551-21.079-39.238-26.402-61.376 1.5604 0.5288 3.156 0.9705 4.7867 1.328 0.7643 0.1678 1.5615 0.1678 2.3284 0 24.427-5.357 45.292-30.394 45.305-58.85 0-28.431-20.824-53.462-45.22-58.863 0-0.01-0.08-0.011-0.08-0.016 28.244-75.271 100.83-128.82 186.05-128.82zm-185.62 143.56c16.914 0.2205 33.936 16.177 33.936 44.141-3.4852 72.139-66.089 45.849-67.113 0 1.4928-30.668 17.288-44.348 33.177-44.141zm297.98 26.149v0c2.8172 0.032 5.6904 0.1353 8.6068 0.2983 11.664 0.6514 24.025 2.3385 36.278 5.1777 1.563 0.3621 3.1165 0.7978 4.6738 1.1978-0.1066 0.5048-0.1438 1.0316-0.1066 1.5718 0 0 4.1248 50.662-43.418 87.647-21.488-8.7684-41.72-18.907-54.009-34.403-17.327-23.216-9.0083-55.33 24.468-60.141 7.1007-0.9871 15.05-1.453 23.502-1.3491zm60.733 9.8764c18.809 6.0202 36.564 14.858 50.357 26.75 17.625 15.196 28.927 34.952 28.927 61.107 0 54.088-21.131 88.576-42.228 109.96-21.099 21.38-41.852 29.226-41.852 29.226-2.1356 0.8124-3.5363 2.8713-3.5086 5.1567 0 0 0.4048 37.482 0.9166 77.304 0.5059 39.823 1.0907 81.654 1.5167 91.451 0.1704 3.9786 2.2118 7.3908 4.7239 10.04 2.5115 2.6496 5.6052 4.8513 9.1367 7.1446 7.0623 4.5867 15.97 9.4627 25.266 16.26 18.594 13.595 38.704 34.414 46.944 75.199 4.8895 24.199 5.5797 46.366 4.1391 65.638-14.29-8.9449-29.285-11.688-42.914-11.377-17.551 0.40102-32.821 5.8592-41.38 9.641-1.7281-10.354-6.0973-20.207-12.285-29.137-9.9585-14.372-24.577-26.585-41.127-35.773-33.1-18.377-74.284-25.25-102.79-8.8046-27.615 15.934-56.902 52.518-80.091 85.281-1.4363 2.0296-2.7645 3.9814-4.1481 5.9762-27.239-35.655-65.818-36.32-83.483-34.403-0.6503 0.0735-1.2612 0.14326-1.8534 0.21889 13.798-34.286 27.294-68.384 35.076-92.586 9.6282-29.937 12.32-72.262 12.562-110.19-3.1331-2.4918-6.0435-6.9642-6.0435-12.927 0-4.6046 2.9179-7.556 5.9125-9.3762-0.6183-36.424-3.0633-64.469-3.0633-64.469-0.1758-1.9505-1.3863-3.6526-3.1688-4.4633l-188.14-85.92c-0.08-0.011-0.08-0.027-0.096-0.032 0 0-1.7804-0.8221-3.3621-1.5551 31.332-29.105 36.269-64.469 36.916-78.78 45.947 16.179 86.64 36.358 91.871 38.98 0 0 13.167 9.0952 33.924 22.182 55.303 28.536 114.6 82.173 168.73 69.53 5.7347-1.037 11.254-2.2959 16.642-3.6732 49.253-10.825 92.026-38.973 121.6-77.729 7.5438-9.2366 12.665-16.922 15.302-21.249 5.4044 2.4015 11.702 5.1722 22.384 9.5527-5.3976-9.3482-17.618-18.509-25.729-22.909-0.4154-0.2179-0.8468-0.3739-1.2936-0.4788-13.687-7.4643-30.297-13.579-46.953-20.013 40.41-34.833 42.729-79.821 42.661-90.749zm-526.08 77.712c4.4885-0.1512 9.3955 0.043 14.609 0.5628 18.201 1.8127 40.081 7.5044 61.821 14.688 0.1385 9.2058-1.5849 47.088-36.727 77.279-10.305-5.3013-24.789-13.399-38.149-23.329-11.932-8.8696-22.719-19.149-28.385-29.247-5.6665-10.098-6.7364-19.151-0.1118-29.255 2.9424-4.4885 7.7413-7.4677 14.835-9.1913 3.5469-0.8619 7.6199-1.3578 12.108-1.5087zm180.75 169.29 53.345 24.359c0.2237 2.5962 2.7332 31.082 3.0181 69.807 0.3035 40.442-2.1479 88.972-12.049 119.76-0.08 0.24764-0.1864 0.54407-0.2769 0.79459-24.193-0.43298-44.044-22.672-44.044-51.172zm203.7 20.211c-32.573 0-58.969 26.379-58.969 58.939v26.746c0 32.56 26.396 58.939 58.969 58.939h32.436c32.572 0 58.972-26.379 58.972-58.939v-26.746c0-32.559-26.4-58.939-58.972-58.939zm0 10.889h32.436c26.732 0 48.083 21.338 48.083 48.05v26.746c0 26.711-21.352 48.049-48.083 48.049h-32.436c-26.733 0-48.079-21.338-48.079-48.049v-26.746c0-26.711 21.346-48.05 48.079-48.05zm-170.21 288.55c17.38 0.0426 43.488 5.243 63.267 31.6 0.5533 0.71891 1.2702 1.2897 2.0967 1.6601-12.498 18.514-22.139 34.298-26.687 41.935-16.354-10.569-30.737-13.353-42.417-12.125-4.3947 0.46174-8.4054 1.49-11.995 2.883-8.929 4.2365-14.918 9.5386-20.405 20.812 13.807-6.2562 16.36-7.4766 24.347-10.658 10.949-4.2492 26.557-5.09 49.032 11.293 6.7172 6.7804 10.066 17.404 8.5567 27.423-1.5482 10.289-7.702 19.8-20.727 24.8-12.34 4.7362-34.488 2.8315-52.975-3.0554-9.2432-2.9434-17.625-6.8053-23.468-10.78-5.8427-3.9745-8.5157-8.0518-8.6707-9.8301-0.08-0.53832 0.474-4.7927 2.0009-10.25 1.5327-5.4578 3.8867-12.523 6.8371-20.719 5.9003-16.392 14.197-37.323 23.186-59.691 3.051-7.5892 6.2214-15.44 9.3688-23.241 0.1758-0.0479 7.6445-2.0814 18.652-2.0551zm354.69 8.044v0c12.955-0.0735 27.145 3.0802 40.253 12.869-3.8611 30.242-12.482 51.517-16.26 59.729-8.4641-1.8638-16.141-2.2047-22.976-1.5466v4e-3c-8.4033 0.80918-15.53 3.1138-21.278 5.9301-5.2079 2.7912-11.674 7.7847-15.928 18.034 22.125-8.5774 40.319-15.964 60.969-10.986 0.3834 0.16296 0.7887 0.29078 1.2233 0.36587 9.1974 1.5848 16.438 9.9411 19.046 19.337 2.6074 9.3956 0.7157 18.321-6.8371 22.64-5.9546 3.4034-15.741 4.677-27.008 3.9673-11.265-0.70911-23.907-3.2371-35.676-6.325-21.085-5.5319-35.364-11.523-38.926-12.974 2.0226-6.3812 11.138-35.928 20.631-92.859 0.442-2.5998 0.6673-5.1806 0.7488-7.7456 6.166-3.0787 22.704-10.33 42.015-10.439z" color="#000000" stroke-linecap="round" stroke-linejoin="round" stroke-width=".99396"/> <path d="m-8100.9-905.28s1.5663-9.4079-12.711-10.005c-14.276-0.59695-40.808-0.59695-40.808-0.59695l-0.1704 31.061 44.291-1.1948s12.884-2.24 9.4019-19.264z" fill="#fff" stop-color="#000000" style="paint-order:normal"/> <path d="m-8067.5-1226.9c79.972 81.493 0.1704 180.93-62.726 200.71-17.716 13.373-4.2361 100.92-4.2361 100.92l22.85 0.1097c-0.08-4.263-0.1118-4.8574-0.1704-9.116-0.5059-39.822-0.9117-77.304-0.9117-77.304 0-2.2853 1.3735-4.3443 3.509-5.1567 0 0 20.751-7.8459 41.851-29.226 21.099-21.38 42.229-55.867 42.229-109.96 0-26.156-11.302-45.912-28.927-61.107-4.1471-3.5755-8.6851-6.8424-13.47-9.8721z" fill="#adacd5" stop-color="#000000" style="paint-order:normal"/> <path d="m-8277.4-1423.4c-5.9712 0-11.879 0.2759-17.714 0.7897 24.834 2.7449 99.229 14.268 126.33 55.761 32.727 50.109-42.291 20.591-87.677 31.474 0-2e-4 0.08 3e-4 0.08 0 9.1192-0.082 18.255 0.3952 27.339 1.4247 63.028 7.1399 118.51 40.095 149.18 87.702-10.691-99.636-95.002-177.14-197.56-177.14z" fill="#adacd5" stop-color="#000000" style="paint-order:normal"/> <path d="m-8273.5-1277.2a26.533 41.809 62.956 0 1-25.174 42.641 26.533 41.809 62.956 0 1-49.301-4.6219 26.533 41.809 62.956 0 1 25.174-42.641 26.533 41.809 62.956 0 1 49.301 4.6221z" fill="#615d77" stop-color="#000000" stroke-linecap="round" stroke-linejoin="round" stroke-width="1.988"/> <path d="m-8344.5-1220.2a11.13 17.538 62.956 0 1-10.559 17.887 11.13 17.538 62.956 0 1-20.681-1.9388 11.13 17.538 62.956 0 1 10.56-17.887 11.13 17.538 62.956 0 1 20.68 1.9389z" fill="#615d77" stop-color="#000000" stroke-linecap="round" stroke-linejoin="round" stroke-width="1.988"/> <path d="m-8627.1-1166.2c-1.1727 0-2.3199 0.016-3.4425 0.048-4.4879 0.1512-8.5599 0.6465-12.108 1.5086-7.0927 1.7237-11.888 4.7027-14.83 9.1914-6.6257 10.104-5.5536 19.157 0.1118 29.255 3.0351 5.4075 7.5667 10.859 12.928 16.126 0 0-27.636-40.262 12.878-48.663 15.623-3.2396 45.953 3.529 77.317 13.054 0.1225-2.1887 0.1438-3.981 0.1278-5.2198-21.741-7.1839-43.624-12.871-61.826-14.684-3.9096-0.3915-7.6445-0.5986-11.162-0.6132zm83.504 18.895c-0.08 1.37-0.2077 3.0927-0.3728 4.8246 46.033 14.709 90.763 33.513 91.93 34.004-5.7405-2.8725-45.968-22.776-91.556-38.829z" fill="#fff" stop-color="#000000" style="paint-order:normal"/> <path d="m-8168.3-1253.7c-7.2802 0.032-14.144 0.498-20.357 1.3617-33.468 4.8093-41.791 36.909-24.481 60.124l0.08 0.016s-27.101-77.465 97.423-52.046c0-0.4298-0.08-1.1978-0.08-1.1978 0-0.54 0-1.0667 0.1065-1.5718-1.5582-0.3994-3.1107-0.8359-4.6737-1.1978-12.254-2.8392-24.61-4.5305-36.274-5.1819-2.9153-0.1635-5.7895-0.262-8.6068-0.294-1.0561-0.016-2.1037-0.016-3.1438-0.016zm63.877 9.889c0 0.6555-0.08 1.7989-0.08 2.6897 6.9531 2.1598 14.348 4.8256 22.219 8.0692 4.9513 2.0407 9.5191 3.8667 13.797 5.5307-10.897-6.7707-23.16-12.197-35.946-16.29z" fill="#fff" stop-color="#000000" style="paint-order:normal"/> <path d="m-8463.1-1279.9c-15.89-0.2067-31.68 13.477-33.172 44.145 0.3035 13.455 5.9024 25.226 13.76 33.319v-0.027s-23.179-47.805 11.965-68.496c16.842-9.9161 28.698-0.1693 35.816 10.368-6.385-12.389-17.412-19.168-28.393-19.312z" fill="#fff" stop-color="#000000" style="paint-order:normal"/> <path d="m-8190.5-1237.9a18.758 15.44 7.1448 0 0 4.1189 21.788 18.758 15.44 7.1448 0 0 26.14-2.3617 18.758 15.44 7.1448 0 0-4.1189-21.788 18.758 15.44 7.1448 0 0-26.14 2.3617z" fill="#fff" stop-color="#000000" stroke-linecap="round" stroke-linejoin="round" stroke-width="1.988"/> <path d="m-8152.9-1215.3a6.4055 7.956 76.428 0 0 0.096 9.1396 6.4055 7.956 76.428 0 0 11.141-0.9906 6.4055 7.956 76.428 0 0-0.096-9.1396 6.4055 7.956 76.428 0 0-11.142 0.9906z" fill="#fff" stop-color="#000000" stroke-linecap="round" stroke-linejoin="round" stroke-width="1.988"/> <path d="m-8630.7-1142.9a14.237 7.6761 4.5131 0 0 19.94 2.4385 14.237 7.6761 4.5131 0 0 2.4461-10.662 14.237 7.6761 4.5131 0 0-19.941-2.4385 14.237 7.6761 4.5131 0 0-2.445 10.662z" fill="#fff" stop-color="#000000" stroke-linecap="round" stroke-linejoin="round" stroke-width="1.988"/> <path d="m-8346.6-1383.5a19.123 30.134 62.956 0 1-18.144 30.734 19.123 30.134 62.956 0 1-35.533-3.3313 19.123 30.134 62.956 0 1 18.144-30.734 19.123 30.134 62.956 0 1 35.534 3.3313z" fill="#fff" stop-color="#000000" stroke-linecap="round" stroke-linejoin="round" stroke-width="1.988"/> <path d="m-8397.8-1342.4a8.0217 12.64 62.956 0 1-7.6114 12.892 8.0217 12.64 62.956 0 1-14.905-1.3973 8.0217 12.64 62.956 0 1 7.6104-12.892 8.0217 12.64 62.956 0 1 14.906 1.3975z" fill="#fff" stop-color="#000000" stroke-linecap="round" stroke-linejoin="round" stroke-width="1.988"/> <path d="m-8177.3-949.25c2.3273 5.9433 3.6098 12.47 3.6098 19.337v28.066c0 28.028-21.346 50.42-48.079 50.42h-32.441c-12.179 0-23.238-4.6501-31.671-12.36 8.6212 12.662 23.16 20.913 39.783 20.913h32.436c26.732 0 48.078-21.338 48.078-48.049v-26.746c0-12.134-4.4033-23.159-11.717-31.579z" color="#000000" fill="#c1c1c1" stroke-linecap="round" stroke-linejoin="round" stroke-width=".99396"/> <path d="m-8154.4-915.88-0.1704 31.062 44.289-1.1977s9.648-1.6781 9.9894-13.163c-1.3346 3.3289-5.233 7.5019-16.391 7.5019-18.551 0-35.954 4.8435-35.954-19.278 0-2.0543 0-3.6633-0.091-4.9214-0.4527-5.9e-4 -1.6765-4e-3 -1.6765-4e-3z" fill="#c1c1c1" stop-color="#000000" style="paint-order:normal"/> <path d="m-8243.3-932.62c-7.2003 0-17.113 3.6717-17.113 18.873 0 12.118 19.412 29.914 27.287 36.634 1.7793 1.5182 4.7415 1.5182 6.5208 0 7.8745-6.7202 27.287-24.516 27.287-36.634 0-15.201-9.9132-18.873-17.113-18.873-7.2003 0-13.435 7.7998-13.435 7.7998s-6.2342-7.7998-13.434-7.7998z" color="#000000" fill="#d680a6" stroke-linecap="square" stroke-width="1.988"/> </g> </g> </g> </svg>